<svg xmlns="http://www.w3.org/2000/svg" viewBox="0 0 116.03 132.21"><title>logoFichier 11</title><g id="Calque_2" data-name="Calque 2"><g id="mobile"><g style="opacity:0.6000000000000001"><g style="opacity:0.77"><path d="M105.51,58.49A52.88,52.88,0,0,1,103.9,73,53.36,53.36,0,0,1,98,86.51a55.59,55.59,0,0,1-9.73,11.22,54.42,54.42,0,0,1-12.68,7.89,53.44,53.44,0,0,1-14.5,3.82,55.71,55.71,0,0,1-7.53.2l-1.89-.08c-.31,0-.63,0-.94,0l-.94-.13L46,108.85a54.62,54.62,0,0,1-14.22-5,57.23,57.23,0,0,1-12.15-9,56.46,56.46,0,0,1-8.95-12.16,54.06,54.06,0,0,1-5-14.21l-.54-3.75L5,63.83c0-.31,0-.63,0-.94L4.89,61a55.71,55.71,0,0,1,.2-7.53A53.41,53.41,0,0,1,8.91,39a54.67,54.67,0,0,1,7.9-12.68A55.63,55.63,0,0,1,28,16.55a53.72,53.72,0,0,1,13.5-5.92A52.49,52.49,0,0,1,56.05,9l-3.63.33c-.6.08-1.2.07-1.8.21l-1.78.35-1.77.33-.89.17-.87.26-3.46,1a53.81,53.81,0,0,0-12.73,6.49A53.57,53.57,0,0,0,18.83,28a53.42,53.42,0,0,0-7,12.21l-1.16,3.33c-.09.28-.2.55-.28.83l-.21.86-.4,1.71L9.33,48.6c-.14.56-.18,1.15-.28,1.73-.15,1.16-.35,2.32-.47,3.48a51.26,51.26,0,0,0-.05,7l.11,1.76c0,.29,0,.58.06.87l.14.86.56,3.46a52.23,52.23,0,0,0,4.75,13.11,53.24,53.24,0,0,0,8.34,11.17,52.34,52.34,0,0,0,11.17,8.33,52.25,52.25,0,0,0,13.11,4.76l3.45.56.87.14c.29,0,.58,0,.87.07l1.75.1a51.4,51.4,0,0,0,7-.05,53.62,53.62,0,0,0,13.65-3.21,53.68,53.68,0,0,0,12.21-7,53.57,53.57,0,0,0,9.77-10.29,53.81,53.81,0,0,0,6.49-12.73l1-3.46.26-.87.17-.89.33-1.77.35-1.79a18,18,0,0,0,.2-1.8Z" style="fill:#fff"/></g><g style="opacity:0.77"><path d="M66.32.47A38.63,38.63,0,0,1,86,2.59c1.56.62,3.08,1.36,4.6,2.09s2.87,1.77,4.28,2.68,2.62,2.12,3.93,3.17l3.6,3.49a51,51,0,0,1,10.51,16.8,49.18,49.18,0,0,1,3,19.31h-.4a50,50,0,0,0-4.49-18.54,48.24,48.24,0,0,0-10.93-15.3l-3.59-3c-1.3-.88-2.58-1.77-3.88-2.62l-4-2.3-2.09-1c-.69-.34-1.37-.74-2.08-1C83,5.7,81.62,5.05,80.16,4.49L75.69,3c-1.53-.36-3.06-.8-4.61-1.19s-3.15-.57-4.76-.95Z" style="fill:#fff"/></g><g style="opacity:0.77"><path d="M33.34,113A35.19,35.19,0,0,1,20,109.87,34.72,34.72,0,0,1,9.08,102a34.15,34.15,0,0,1-7-11.33A33.58,33.58,0,0,1,0,77.7,33.35,33.35,0,0,0,3,90.26a32.72,32.72,0,0,0,7.47,10.3,32.24,32.24,0,0,0,10.68,6.54A31.73,31.73,0,0,0,33.34,109a2,2,0,0,1,.16,4Z" style="fill:#fff"/></g><g style="opacity:0.77"><path d="M22.73,58.49a34.39,34.39,0,0,1,.91-9.83,35.93,35.93,0,0,1,3.89-9.23,37.92,37.92,0,0,1,6.55-7.71,36.63,36.63,0,0,1,8.62-5.45,36.11,36.11,0,0,1,9.91-2.68A38.73,38.73,0,0,1,62.92,24a36.91,36.91,0,0,1,9.76,3.42A38.57,38.57,0,0,1,81,33.51a38.59,38.59,0,0,1,6.14,8.35,36.78,36.78,0,0,1,3.42,9.76A38.32,38.32,0,0,1,91,61.93a35.42,35.42,0,0,1-2.68,9.91,36.63,36.63,0,0,1-5.45,8.62A37.61,37.61,0,0,1,75.11,87a35.93,35.93,0,0,1-9.23,3.89,34.42,34.42,0,0,1-9.83.91,35.49,35.49,0,0,0,4.84-.7,20.71,20.71,0,0,0,2.36-.54l2.31-.73A35.92,35.92,0,0,0,74,85.38,33,33,0,0,0,85.39,70.64a36.34,36.34,0,0,0,2.07-9,35.2,35.2,0,0,0-.59-9.23,34.76,34.76,0,0,0-3.16-8.65,34.83,34.83,0,0,0-5.51-7.37,35.22,35.22,0,0,0-7.37-5.52,35.31,35.31,0,0,0-8.65-3.16A35.2,35.2,0,0,0,53,27.07a36.31,36.31,0,0,0-9.06,2.07,36.24,36.24,0,0,0-8.15,4.6,36.14,36.14,0,0,0-6.58,6.78A36,36,0,0,0,24.69,49L24,51.29a20.74,20.74,0,0,0-.55,2.36A37.1,37.1,0,0,0,22.73,58.49Z" style="fill:#fff"/></g><g style="opacity:0.77"><polygon points="0.02 77.95 33.34 79.45 0.02 80.95 0.02 77.95" style="fill:#fff"/></g><g style="opacity:0.77"><polygon points="33.34 111.02 31.34 81.19 31.21 79.19 35.48 79.19 35.34 81.19 33.34 111.02" style="fill:#fff"/></g><g style="opacity:0.77"><polygon points="68.32 4.16 66.32 132.21 64.32 4.16 68.32 4.16" style="fill:#fff"/></g><g style="opacity:0.77"><polygon points="115.78 52.13 57.59 50.13 115.78 48.13 115.78 52.13" style="fill:#fff"/></g></g></g></g></svg>